<mxfile host="65bd71144e">
    <diagram id="D9y0n1A1WVWuOY9T_B6i" name="Page-1">
        <mxGraphModel dx="658" dy="728" grid="1" gridSize="10" guides="1" tooltips="1" connect="1" arrows="1" fold="1" page="1" pageScale="1" pageWidth="827" pageHeight="1169" math="0" shadow="0">
            <root>
                <mxCell id="0"/>
                <mxCell id="1" parent="0"/>
                <mxCell id="8" value="" style="rounded=0;whiteSpace=wrap;html=1;fillColor=none;" parent="1" vertex="1">
                    <mxGeometry x="80" y="280" width="160" height="160" as="geometry"/>
                </mxCell>
                <mxCell id="2" value="" style="rounded=0;whiteSpace=wrap;html=1;fillColor=#d5e8d4;strokeColor=#82b366;" parent="1" vertex="1">
                    <mxGeometry x="80" y="280" width="160" height="160" as="geometry"/>
                </mxCell>
                <mxCell id="3" value="" style="rounded=0;whiteSpace=wrap;html=1;fillColor=#dae8fc;strokeColor=#6c8ebf;opacity=50;" parent="1" vertex="1">
                    <mxGeometry x="20" y="320" width="80" height="80" as="geometry"/>
                </mxCell>
                <mxCell id="5" value="" style="rounded=0;whiteSpace=wrap;html=1;fillColor=#dae8fc;strokeColor=#6c8ebf;opacity=50;" parent="1" vertex="1">
                    <mxGeometry x="220" y="320" width="80" height="80" as="geometry"/>
                </mxCell>
                <mxCell id="9" value="" style="rounded=0;whiteSpace=wrap;html=1;fillColor=#d5e8d4;strokeColor=#82b366;" parent="1" vertex="1">
                    <mxGeometry x="100" y="600" width="120" height="120" as="geometry"/>
                </mxCell>
                <mxCell id="10" value="" style="rounded=0;whiteSpace=wrap;html=1;fillColor=#dae8fc;strokeColor=#6c8ebf;opacity=50;" parent="1" vertex="1">
                    <mxGeometry x="40" y="560" width="80" height="200" as="geometry"/>
                </mxCell>
                <mxCell id="12" value="" style="rounded=0;whiteSpace=wrap;html=1;fillColor=#dae8fc;strokeColor=#6c8ebf;opacity=50;" parent="1" vertex="1">
                    <mxGeometry x="180" y="560" width="80" height="200" as="geometry"/>
                </mxCell>
                <mxCell id="13" value="" style="rounded=0;whiteSpace=wrap;html=1;fillColor=#d5e8d4;strokeColor=#82b366;" parent="1" vertex="1">
                    <mxGeometry x="380" y="600" width="120" height="120" as="geometry"/>
                </mxCell>
                <mxCell id="14" value="" style="rounded=0;whiteSpace=wrap;html=1;fillColor=#f8cecc;strokeColor=#b85450;opacity=50;" parent="1" vertex="1">
                    <mxGeometry x="340" y="560" width="200" height="60" as="geometry"/>
                </mxCell>
                <mxCell id="15" value="" style="rounded=0;whiteSpace=wrap;html=1;fillColor=#f8cecc;strokeColor=#b85450;opacity=50;" parent="1" vertex="1">
                    <mxGeometry x="340" y="700" width="200" height="60" as="geometry"/>
                </mxCell>
                <mxCell id="21" value="" style="rounded=0;whiteSpace=wrap;html=1;fillColor=#d5e8d4;strokeColor=#82b366;" parent="1" vertex="1">
                    <mxGeometry x="640" y="440" width="160" height="160" as="geometry"/>
                </mxCell>
                <mxCell id="22" value="" style="rounded=0;whiteSpace=wrap;html=1;fillColor=#fff2cc;opacity=50;strokeColor=#d6b656;" parent="1" vertex="1">
                    <mxGeometry x="600" y="400" width="80" height="80" as="geometry"/>
                </mxCell>
                <mxCell id="23" value="" style="rounded=0;whiteSpace=wrap;html=1;fillColor=#fff2cc;opacity=50;strokeColor=#d6b656;" parent="1" vertex="1">
                    <mxGeometry x="600" y="560" width="80" height="80" as="geometry"/>
                </mxCell>
                <mxCell id="24" value="" style="rounded=0;whiteSpace=wrap;html=1;fillColor=#fff2cc;opacity=50;strokeColor=#d6b656;" parent="1" vertex="1">
                    <mxGeometry x="760" y="560" width="80" height="80" as="geometry"/>
                </mxCell>
                <mxCell id="25" value="" style="rounded=0;whiteSpace=wrap;html=1;fillColor=#fff2cc;opacity=50;strokeColor=#d6b656;" parent="1" vertex="1">
                    <mxGeometry x="760" y="400" width="80" height="80" as="geometry"/>
                </mxCell>
                <mxCell id="32" value="" style="rounded=0;whiteSpace=wrap;html=1;fillColor=none;" parent="1" vertex="1">
                    <mxGeometry x="360" y="280" width="160" height="160" as="geometry"/>
                </mxCell>
                <mxCell id="33" value="" style="rounded=0;whiteSpace=wrap;html=1;fillColor=#d5e8d4;strokeColor=#82b366;" parent="1" vertex="1">
                    <mxGeometry x="360" y="280" width="160" height="160" as="geometry"/>
                </mxCell>
                <mxCell id="36" value="" style="rounded=0;whiteSpace=wrap;html=1;fillColor=#f8cecc;strokeColor=#b85450;opacity=50;" parent="1" vertex="1">
                    <mxGeometry x="400" y="420" width="80" height="80" as="geometry"/>
                </mxCell>
                <mxCell id="37" value="" style="rounded=0;whiteSpace=wrap;html=1;fillColor=#f8cecc;strokeColor=#b85450;opacity=50;" parent="1" vertex="1">
                    <mxGeometry x="400" y="220" width="80" height="80" as="geometry"/>
                </mxCell>
            </root>
        </mxGraphModel>
    </diagram>
    <diagram id="37kOpbUEENELZWZ-42YW" name="Page-2">
        <mxGraphModel dx="1537" dy="728" grid="1" gridSize="10" guides="1" tooltips="1" connect="1" arrows="1" fold="1" page="1" pageScale="1" pageWidth="827" pageHeight="1169" math="0" shadow="0">
            <root>
                <mxCell id="0"/>
                <mxCell id="1" parent="0"/>
                <mxCell id="Qr5x2QdAKcGL1PW_GDfY-1" value="Shape" style="rounded=0;whiteSpace=wrap;html=1;" parent="1" vertex="1">
                    <mxGeometry x="200" y="120" width="80" height="40" as="geometry"/>
                </mxCell>
                <mxCell id="Qr5x2QdAKcGL1PW_GDfY-2" value="Rectangle" style="rounded=0;whiteSpace=wrap;html=1;" parent="1" vertex="1">
                    <mxGeometry x="80" y="200" width="80" height="40" as="geometry"/>
                </mxCell>
                <mxCell id="Qr5x2QdAKcGL1PW_GDfY-3" value="Circle" style="rounded=0;whiteSpace=wrap;html=1;" parent="1" vertex="1">
                    <mxGeometry x="320" y="200" width="80" height="40" as="geometry"/>
                </mxCell>
                <mxCell id="Qr5x2QdAKcGL1PW_GDfY-4" value="Ball" style="rounded=0;whiteSpace=wrap;html=1;" parent="1" vertex="1">
                    <mxGeometry x="320" y="280" width="80" height="40" as="geometry"/>
                </mxCell>
                <mxCell id="Qr5x2QdAKcGL1PW_GDfY-5" value="Paddle" style="rounded=0;whiteSpace=wrap;html=1;" parent="1" vertex="1">
                    <mxGeometry x="200" y="280" width="80" height="40" as="geometry"/>
                </mxCell>
                <mxCell id="Qr5x2QdAKcGL1PW_GDfY-6" value="Brick" style="rounded=0;whiteSpace=wrap;html=1;" parent="1" vertex="1">
                    <mxGeometry x="80" y="280" width="80" height="40" as="geometry"/>
                </mxCell>
                <mxCell id="Qr5x2QdAKcGL1PW_GDfY-7" value="Wall" style="rounded=0;whiteSpace=wrap;html=1;" parent="1" vertex="1">
                    <mxGeometry x="-40" y="280" width="80" height="40" as="geometry"/>
                </mxCell>
                <mxCell id="Qr5x2QdAKcGL1PW_GDfY-9" value="" style="endArrow=none;html=1;entryX=0.5;entryY=1;entryDx=0;entryDy=0;exitX=0.5;exitY=0;exitDx=0;exitDy=0;" parent="1" source="Qr5x2QdAKcGL1PW_GDfY-2" target="Qr5x2QdAKcGL1PW_GDfY-1" edge="1">
                    <mxGeometry width="50" height="50" relative="1" as="geometry">
                        <mxPoint x="220" y="400" as="sourcePoint"/>
                        <mxPoint x="270" y="350" as="targetPoint"/>
                        <Array as="points">
                            <mxPoint x="120" y="180"/>
                            <mxPoint x="240" y="180"/>
                        </Array>
                    </mxGeometry>
                </mxCell>
                <mxCell id="Qr5x2QdAKcGL1PW_GDfY-10" value="" style="endArrow=none;html=1;entryX=0.5;entryY=1;entryDx=0;entryDy=0;exitX=0.5;exitY=0;exitDx=0;exitDy=0;" parent="1" source="Qr5x2QdAKcGL1PW_GDfY-7" target="Qr5x2QdAKcGL1PW_GDfY-2" edge="1">
                    <mxGeometry width="50" height="50" relative="1" as="geometry">
                        <mxPoint x="350" y="160" as="sourcePoint"/>
                        <mxPoint x="400" y="110" as="targetPoint"/>
                        <Array as="points">
                            <mxPoint y="260"/>
                            <mxPoint x="120" y="260"/>
                        </Array>
                    </mxGeometry>
                </mxCell>
                <mxCell id="Qr5x2QdAKcGL1PW_GDfY-11" value="" style="endArrow=none;html=1;entryX=0.5;entryY=1;entryDx=0;entryDy=0;exitX=0.5;exitY=0;exitDx=0;exitDy=0;" parent="1" source="Qr5x2QdAKcGL1PW_GDfY-3" target="Qr5x2QdAKcGL1PW_GDfY-1" edge="1">
                    <mxGeometry width="50" height="50" relative="1" as="geometry">
                        <mxPoint x="360" y="170" as="sourcePoint"/>
                        <mxPoint x="410" y="120" as="targetPoint"/>
                        <Array as="points">
                            <mxPoint x="360" y="180"/>
                            <mxPoint x="240" y="180"/>
                        </Array>
                    </mxGeometry>
                </mxCell>
                <mxCell id="Qr5x2QdAKcGL1PW_GDfY-12" value="" style="endArrow=none;html=1;entryX=0.5;entryY=1;entryDx=0;entryDy=0;exitX=0.5;exitY=0;exitDx=0;exitDy=0;" parent="1" source="Qr5x2QdAKcGL1PW_GDfY-6" target="Qr5x2QdAKcGL1PW_GDfY-2" edge="1">
                    <mxGeometry width="50" height="50" relative="1" as="geometry">
                        <mxPoint x="370" y="180" as="sourcePoint"/>
                        <mxPoint x="420" y="130" as="targetPoint"/>
                    </mxGeometry>
                </mxCell>
                <mxCell id="Qr5x2QdAKcGL1PW_GDfY-13" value="" style="endArrow=none;html=1;exitX=0.5;exitY=0;exitDx=0;exitDy=0;entryX=0.5;entryY=1;entryDx=0;entryDy=0;" parent="1" source="Qr5x2QdAKcGL1PW_GDfY-5" target="Qr5x2QdAKcGL1PW_GDfY-2" edge="1">
                    <mxGeometry width="50" height="50" relative="1" as="geometry">
                        <mxPoint x="380" y="190" as="sourcePoint"/>
                        <mxPoint x="430" y="140" as="targetPoint"/>
                        <Array as="points">
                            <mxPoint x="240" y="260"/>
                            <mxPoint x="120" y="260"/>
                        </Array>
                    </mxGeometry>
                </mxCell>
                <mxCell id="Qr5x2QdAKcGL1PW_GDfY-14" value="" style="endArrow=none;html=1;entryX=0.5;entryY=1;entryDx=0;entryDy=0;" parent="1" source="Qr5x2QdAKcGL1PW_GDfY-4" target="Qr5x2QdAKcGL1PW_GDfY-3" edge="1">
                    <mxGeometry width="50" height="50" relative="1" as="geometry">
                        <mxPoint x="390" y="200" as="sourcePoint"/>
                        <mxPoint x="440" y="150" as="targetPoint"/>
                    </mxGeometry>
                </mxCell>
            </root>
        </mxGraphModel>
    </diagram>
    <diagram id="2sWwRo4ZFx5-pePZC_CM" name="Page-3">
        <mxGraphModel dx="1021" dy="809" grid="1" gridSize="10" guides="1" tooltips="1" connect="1" arrows="1" fold="1" page="1" pageScale="1" pageWidth="827" pageHeight="1169" math="0" shadow="0">
            <root>
                <mxCell id="0"/>
                <mxCell id="1" parent="0"/>
                <mxCell id="E0uVWgAHKYhyHuvZZFbG-1" value="" style="rounded=0;whiteSpace=wrap;html=1;fillColor=none;dashed=1;" vertex="1" parent="1">
                    <mxGeometry x="80" y="80" width="160" height="160" as="geometry"/>
                </mxCell>
                <mxCell id="E0uVWgAHKYhyHuvZZFbG-2" value="" style="ellipse;whiteSpace=wrap;html=1;aspect=fixed;fillColor=#dae8fc;strokeColor=#6c8ebf;shadow=0;" vertex="1" parent="1">
                    <mxGeometry x="80" y="80" width="160" height="160" as="geometry"/>
                </mxCell>
                <mxCell id="E0uVWgAHKYhyHuvZZFbG-4" value="" style="rounded=0;whiteSpace=wrap;html=1;fillColor=#dae8fc;strokeColor=#6c8ebf;" vertex="1" parent="1">
                    <mxGeometry x="280" y="120" width="160" height="80" as="geometry"/>
                </mxCell>
                <mxCell id="E0uVWgAHKYhyHuvZZFbG-8" value="" style="ellipse;whiteSpace=wrap;html=1;aspect=fixed;shadow=0;sketch=0;fillColor=#000000;" vertex="1" parent="1">
                    <mxGeometry x="NaN" y="NaN" width="NaN" height="10" as="geometry"/>
                </mxCell>
                <mxCell id="E0uVWgAHKYhyHuvZZFbG-9" value="" style="ellipse;whiteSpace=wrap;html=1;aspect=fixed;shadow=0;sketch=0;fillColor=#000000;" vertex="1" parent="1">
                    <mxGeometry x="155" y="155" width="10" height="10" as="geometry"/>
                </mxCell>
                <mxCell id="E0uVWgAHKYhyHuvZZFbG-10" value="" style="endArrow=classic;startArrow=classic;html=1;exitX=0.5;exitY=0;exitDx=0;exitDy=0;" edge="1" parent="1" source="E0uVWgAHKYhyHuvZZFbG-9" target="E0uVWgAHKYhyHuvZZFbG-2">
                    <mxGeometry width="50" height="50" relative="1" as="geometry">
                        <mxPoint x="190" y="150" as="sourcePoint"/>
                        <mxPoint x="240" y="100" as="targetPoint"/>
                    </mxGeometry>
                </mxCell>
                <mxCell id="E0uVWgAHKYhyHuvZZFbG-11" value="" style="endArrow=none;html=1;" edge="1" parent="1">
                    <mxGeometry width="50" height="50" relative="1" as="geometry">
                        <mxPoint x="80" y="80" as="sourcePoint"/>
                        <mxPoint x="80" y="40" as="targetPoint"/>
                    </mxGeometry>
                </mxCell>
                <mxCell id="E0uVWgAHKYhyHuvZZFbG-12" value="" style="endArrow=none;html=1;" edge="1" parent="1">
                    <mxGeometry width="50" height="50" relative="1" as="geometry">
                        <mxPoint x="239.47" y="80" as="sourcePoint"/>
                        <mxPoint x="239.47" y="40" as="targetPoint"/>
                    </mxGeometry>
                </mxCell>
                <mxCell id="E0uVWgAHKYhyHuvZZFbG-13" value="" style="endArrow=none;html=1;entryX=0;entryY=1;entryDx=0;entryDy=0;" edge="1" parent="1" target="E0uVWgAHKYhyHuvZZFbG-1">
                    <mxGeometry width="50" height="50" relative="1" as="geometry">
                        <mxPoint x="40" y="240" as="sourcePoint"/>
                        <mxPoint x="90" y="50" as="targetPoint"/>
                    </mxGeometry>
                </mxCell>
                <mxCell id="E0uVWgAHKYhyHuvZZFbG-14" value="" style="endArrow=none;html=1;entryX=0;entryY=1;entryDx=0;entryDy=0;" edge="1" parent="1">
                    <mxGeometry width="50" height="50" relative="1" as="geometry">
                        <mxPoint x="39.99999999999994" y="79.47" as="sourcePoint"/>
                        <mxPoint x="80" y="79.46999999999989" as="targetPoint"/>
                    </mxGeometry>
                </mxCell>
                <mxCell id="E0uVWgAHKYhyHuvZZFbG-15" value="" style="endArrow=none;html=1;entryX=0;entryY=1;entryDx=0;entryDy=0;" edge="1" parent="1">
                    <mxGeometry width="50" height="50" relative="1" as="geometry">
                        <mxPoint x="439.99999999999994" y="120" as="sourcePoint"/>
                        <mxPoint x="480" y="119.99999999999989" as="targetPoint"/>
                    </mxGeometry>
                </mxCell>
                <mxCell id="E0uVWgAHKYhyHuvZZFbG-16" value="" style="endArrow=none;html=1;" edge="1" parent="1">
                    <mxGeometry width="50" height="50" relative="1" as="geometry">
                        <mxPoint x="280" y="120" as="sourcePoint"/>
                        <mxPoint x="280" y="80" as="targetPoint"/>
                    </mxGeometry>
                </mxCell>
                <mxCell id="E0uVWgAHKYhyHuvZZFbG-17" value="" style="endArrow=none;html=1;" edge="1" parent="1">
                    <mxGeometry width="50" height="50" relative="1" as="geometry">
                        <mxPoint x="439.47" y="120" as="sourcePoint"/>
                        <mxPoint x="439.47" y="80" as="targetPoint"/>
                    </mxGeometry>
                </mxCell>
                <mxCell id="E0uVWgAHKYhyHuvZZFbG-19" value="" style="endArrow=none;html=1;entryX=0;entryY=1;entryDx=0;entryDy=0;" edge="1" parent="1">
                    <mxGeometry width="50" height="50" relative="1" as="geometry">
                        <mxPoint x="440" y="200" as="sourcePoint"/>
                        <mxPoint x="480" y="199.9999999999999" as="targetPoint"/>
                    </mxGeometry>
                </mxCell>
                <mxCell id="E0uVWgAHKYhyHuvZZFbG-20" value="Rectangle" style="text;strokeColor=none;fillColor=none;html=1;fontSize=14;fontStyle=1;verticalAlign=middle;align=center;shadow=0;sketch=0;" vertex="1" parent="1">
                    <mxGeometry x="310" y="80" width="100" height="40" as="geometry"/>
                </mxCell>
                <mxCell id="E0uVWgAHKYhyHuvZZFbG-22" value="Circle" style="text;strokeColor=none;fillColor=none;html=1;fontSize=14;fontStyle=1;verticalAlign=middle;align=center;shadow=0;sketch=0;" vertex="1" parent="1">
                    <mxGeometry x="110" y="40" width="100" height="40" as="geometry"/>
                </mxCell>
                <mxCell id="E0uVWgAHKYhyHuvZZFbG-23" value="MinX" style="text;strokeColor=none;fillColor=none;html=1;fontSize=12;fontStyle=1;verticalAlign=middle;align=center;shadow=0;sketch=0;" vertex="1" parent="1">
                    <mxGeometry x="40" y="20" width="80" height="20" as="geometry"/>
                </mxCell>
                <mxCell id="E0uVWgAHKYhyHuvZZFbG-24" value="MaxX" style="text;strokeColor=none;fillColor=none;html=1;fontSize=12;fontStyle=1;verticalAlign=middle;align=center;shadow=0;sketch=0;" vertex="1" parent="1">
                    <mxGeometry x="200" y="20" width="80" height="20" as="geometry"/>
                </mxCell>
                <mxCell id="E0uVWgAHKYhyHuvZZFbG-25" value="MinX" style="text;strokeColor=none;fillColor=none;html=1;fontSize=12;fontStyle=1;verticalAlign=middle;align=center;shadow=0;sketch=0;" vertex="1" parent="1">
                    <mxGeometry x="240" y="60" width="80" height="20" as="geometry"/>
                </mxCell>
                <mxCell id="E0uVWgAHKYhyHuvZZFbG-26" value="MaxX" style="text;strokeColor=none;fillColor=none;html=1;fontSize=12;fontStyle=1;verticalAlign=middle;align=center;shadow=0;sketch=0;" vertex="1" parent="1">
                    <mxGeometry x="400" y="60" width="80" height="20" as="geometry"/>
                </mxCell>
                <mxCell id="E0uVWgAHKYhyHuvZZFbG-27" value="MinY" style="text;strokeColor=none;fillColor=none;html=1;fontSize=12;fontStyle=1;verticalAlign=middle;align=center;shadow=0;sketch=0;" vertex="1" parent="1">
                    <mxGeometry x="-40" y="70" width="80" height="20" as="geometry"/>
                </mxCell>
                <mxCell id="E0uVWgAHKYhyHuvZZFbG-28" value="MaxY" style="text;strokeColor=none;fillColor=none;html=1;fontSize=12;fontStyle=1;verticalAlign=middle;align=center;shadow=0;sketch=0;" vertex="1" parent="1">
                    <mxGeometry x="-40" y="230" width="80" height="20" as="geometry"/>
                </mxCell>
                <mxCell id="E0uVWgAHKYhyHuvZZFbG-29" value="MinY" style="text;strokeColor=none;fillColor=none;html=1;fontSize=12;fontStyle=1;verticalAlign=middle;align=center;shadow=0;sketch=0;" vertex="1" parent="1">
                    <mxGeometry x="480" y="110" width="80" height="20" as="geometry"/>
                </mxCell>
                <mxCell id="E0uVWgAHKYhyHuvZZFbG-30" value="MaxY" style="text;strokeColor=none;fillColor=none;html=1;fontSize=12;fontStyle=1;verticalAlign=middle;align=center;shadow=0;sketch=0;" vertex="1" parent="1">
                    <mxGeometry x="480" y="190" width="80" height="20" as="geometry"/>
                </mxCell>
                <mxCell id="E0uVWgAHKYhyHuvZZFbG-31" value="R" style="text;strokeColor=none;fillColor=none;html=1;fontSize=12;fontStyle=1;verticalAlign=middle;align=center;shadow=0;sketch=0;" vertex="1" parent="1">
                    <mxGeometry x="165" y="110" width="20" height="20" as="geometry"/>
                </mxCell>
                <mxCell id="E0uVWgAHKYhyHuvZZFbG-32" value="(x, y)" style="text;strokeColor=none;fillColor=none;html=1;fontSize=12;fontStyle=1;verticalAlign=middle;align=center;shadow=0;sketch=0;" vertex="1" parent="1">
                    <mxGeometry x="120" y="170" width="80" height="20" as="geometry"/>
                </mxCell>
                <mxCell id="E0uVWgAHKYhyHuvZZFbG-33" value="" style="ellipse;whiteSpace=wrap;html=1;aspect=fixed;shadow=0;sketch=0;fillColor=#000000;" vertex="1" parent="1">
                    <mxGeometry x="355" y="155" width="10" height="10" as="geometry"/>
                </mxCell>
                <mxCell id="E0uVWgAHKYhyHuvZZFbG-34" value="(x, y)" style="text;strokeColor=none;fillColor=none;html=1;fontSize=12;fontStyle=1;verticalAlign=middle;align=center;shadow=0;sketch=0;" vertex="1" parent="1">
                    <mxGeometry x="320" y="170" width="80" height="20" as="geometry"/>
                </mxCell>
            </root>
        </mxGraphModel>
    </diagram>
    <diagram id="UsU0kqL7JhDUJQbx0KKw" name="Page-4">
        <mxGraphModel dx="1537" dy="728" grid="1" gridSize="10" guides="1" tooltips="1" connect="1" arrows="1" fold="1" page="1" pageScale="1" pageWidth="827" pageHeight="1169" math="0" shadow="0">
            <root>
                <mxCell id="0"/>
                <mxCell id="1" parent="0"/>
                <mxCell id="ChADXR-xzNTXo43bH8L9-1" value="Shape" style="rounded=0;whiteSpace=wrap;html=1;" vertex="1" parent="1">
                    <mxGeometry x="200" y="120" width="80" height="40" as="geometry"/>
                </mxCell>
                <mxCell id="ChADXR-xzNTXo43bH8L9-2" value="Rectangle" style="rounded=0;whiteSpace=wrap;html=1;" vertex="1" parent="1">
                    <mxGeometry x="80" y="200" width="80" height="40" as="geometry"/>
                </mxCell>
                <mxCell id="ChADXR-xzNTXo43bH8L9-3" value="Circle" style="rounded=0;whiteSpace=wrap;html=1;" vertex="1" parent="1">
                    <mxGeometry x="320" y="200" width="80" height="40" as="geometry"/>
                </mxCell>
                <mxCell id="ChADXR-xzNTXo43bH8L9-4" value="Ball" style="rounded=0;whiteSpace=wrap;html=1;" vertex="1" parent="1">
                    <mxGeometry x="320" y="280" width="80" height="40" as="geometry"/>
                </mxCell>
                <mxCell id="ChADXR-xzNTXo43bH8L9-5" value="Paddle" style="rounded=0;whiteSpace=wrap;html=1;" vertex="1" parent="1">
                    <mxGeometry x="200" y="280" width="80" height="40" as="geometry"/>
                </mxCell>
                <mxCell id="ChADXR-xzNTXo43bH8L9-6" value="Brick" style="rounded=0;whiteSpace=wrap;html=1;" vertex="1" parent="1">
                    <mxGeometry x="80" y="280" width="80" height="40" as="geometry"/>
                </mxCell>
                <mxCell id="ChADXR-xzNTXo43bH8L9-7" value="Wall" style="rounded=0;whiteSpace=wrap;html=1;" vertex="1" parent="1">
                    <mxGeometry x="-40" y="280" width="80" height="40" as="geometry"/>
                </mxCell>
                <mxCell id="ChADXR-xzNTXo43bH8L9-8" value="" style="endArrow=none;html=1;entryX=0.5;entryY=1;entryDx=0;entryDy=0;exitX=0.5;exitY=0;exitDx=0;exitDy=0;" edge="1" parent="1" source="ChADXR-xzNTXo43bH8L9-2" target="ChADXR-xzNTXo43bH8L9-1">
                    <mxGeometry width="50" height="50" relative="1" as="geometry">
                        <mxPoint x="220" y="400" as="sourcePoint"/>
                        <mxPoint x="270" y="350" as="targetPoint"/>
                        <Array as="points">
                            <mxPoint x="120" y="180"/>
                            <mxPoint x="240" y="180"/>
                        </Array>
                    </mxGeometry>
                </mxCell>
                <mxCell id="ChADXR-xzNTXo43bH8L9-9" value="" style="endArrow=none;html=1;entryX=0.5;entryY=1;entryDx=0;entryDy=0;exitX=0.5;exitY=0;exitDx=0;exitDy=0;" edge="1" parent="1" source="ChADXR-xzNTXo43bH8L9-7" target="ChADXR-xzNTXo43bH8L9-2">
                    <mxGeometry width="50" height="50" relative="1" as="geometry">
                        <mxPoint x="350" y="160" as="sourcePoint"/>
                        <mxPoint x="400" y="110" as="targetPoint"/>
                        <Array as="points">
                            <mxPoint y="260"/>
                            <mxPoint x="120" y="260"/>
                        </Array>
                    </mxGeometry>
                </mxCell>
                <mxCell id="ChADXR-xzNTXo43bH8L9-10" value="" style="endArrow=none;html=1;entryX=0.5;entryY=1;entryDx=0;entryDy=0;exitX=0.5;exitY=0;exitDx=0;exitDy=0;" edge="1" parent="1" source="ChADXR-xzNTXo43bH8L9-3" target="ChADXR-xzNTXo43bH8L9-1">
                    <mxGeometry width="50" height="50" relative="1" as="geometry">
                        <mxPoint x="360" y="170" as="sourcePoint"/>
                        <mxPoint x="410" y="120" as="targetPoint"/>
                        <Array as="points">
                            <mxPoint x="360" y="180"/>
                            <mxPoint x="240" y="180"/>
                        </Array>
                    </mxGeometry>
                </mxCell>
                <mxCell id="ChADXR-xzNTXo43bH8L9-11" value="" style="endArrow=none;html=1;entryX=0.5;entryY=1;entryDx=0;entryDy=0;exitX=0.5;exitY=0;exitDx=0;exitDy=0;" edge="1" parent="1" source="ChADXR-xzNTXo43bH8L9-6" target="ChADXR-xzNTXo43bH8L9-2">
                    <mxGeometry width="50" height="50" relative="1" as="geometry">
                        <mxPoint x="370" y="180" as="sourcePoint"/>
                        <mxPoint x="420" y="130" as="targetPoint"/>
                    </mxGeometry>
                </mxCell>
                <mxCell id="ChADXR-xzNTXo43bH8L9-12" value="" style="endArrow=none;html=1;exitX=0.5;exitY=0;exitDx=0;exitDy=0;entryX=0.5;entryY=1;entryDx=0;entryDy=0;" edge="1" parent="1" source="ChADXR-xzNTXo43bH8L9-5" target="ChADXR-xzNTXo43bH8L9-2">
                    <mxGeometry width="50" height="50" relative="1" as="geometry">
                        <mxPoint x="380" y="190" as="sourcePoint"/>
                        <mxPoint x="430" y="140" as="targetPoint"/>
                        <Array as="points">
                            <mxPoint x="240" y="260"/>
                            <mxPoint x="120" y="260"/>
                        </Array>
                    </mxGeometry>
                </mxCell>
                <mxCell id="ChADXR-xzNTXo43bH8L9-13" value="" style="endArrow=none;html=1;entryX=0.5;entryY=1;entryDx=0;entryDy=0;" edge="1" parent="1" source="ChADXR-xzNTXo43bH8L9-4" target="ChADXR-xzNTXo43bH8L9-3">
                    <mxGeometry width="50" height="50" relative="1" as="geometry">
                        <mxPoint x="390" y="200" as="sourcePoint"/>
                        <mxPoint x="440" y="150" as="targetPoint"/>
                    </mxGeometry>
                </mxCell>
            </root>
        </mxGraphModel>
    </diagram>
    <diagram id="kmAfZ8GdbO1DOIVvAxAN" name="Page-5">
        <mxGraphModel dx="1014" dy="1040" grid="1" gridSize="10" guides="1" tooltips="1" connect="1" arrows="1" fold="1" page="1" pageScale="1" pageWidth="827" pageHeight="1169" math="0" shadow="0">
            <root>
                <mxCell id="0"/>
                <mxCell id="1" parent="0"/>
                <mxCell id="9M24n2bTwKtzhzi8vtoN-1" value="" style="rounded=0;whiteSpace=wrap;html=1;shadow=0;sketch=0;fontSize=12;fillColor=#dae8fc;strokeColor=#6c8ebf;" vertex="1" parent="1">
                    <mxGeometry x="199" y="160" width="80" height="240" as="geometry"/>
                </mxCell>
                <mxCell id="9M24n2bTwKtzhzi8vtoN-2" value="" style="ellipse;whiteSpace=wrap;html=1;aspect=fixed;shadow=0;sketch=0;fontSize=12;fillColor=#f8cecc;strokeColor=#b85450;" vertex="1" parent="1">
                    <mxGeometry x="39" y="160" width="80" height="80" as="geometry"/>
                </mxCell>
                <mxCell id="9M24n2bTwKtzhzi8vtoN-4" value="" style="shape=flexArrow;endArrow=classic;html=1;fontSize=12;entryX=0;entryY=0.5;entryDx=0;entryDy=0;width=36;endSize=14.617142857142856;" edge="1" parent="1" source="9M24n2bTwKtzhzi8vtoN-2" target="9M24n2bTwKtzhzi8vtoN-1">
                    <mxGeometry width="50" height="50" relative="1" as="geometry">
                        <mxPoint x="179" y="520" as="sourcePoint"/>
                        <mxPoint x="229" y="470" as="targetPoint"/>
                    </mxGeometry>
                </mxCell>
                <mxCell id="9M24n2bTwKtzhzi8vtoN-5" value="" style="rounded=0;whiteSpace=wrap;html=1;shadow=0;sketch=0;fontSize=12;fillColor=#dae8fc;strokeColor=#6c8ebf;" vertex="1" parent="1">
                    <mxGeometry x="398" y="160" width="80" height="240" as="geometry"/>
                </mxCell>
                <mxCell id="9M24n2bTwKtzhzi8vtoN-6" value="" style="ellipse;whiteSpace=wrap;html=1;aspect=fixed;shadow=0;sketch=0;fontSize=12;fillColor=#f8cecc;strokeColor=#b85450;" vertex="1" parent="1">
                    <mxGeometry x="358" y="240" width="80" height="80" as="geometry"/>
                </mxCell>
                <mxCell id="9M24n2bTwKtzhzi8vtoN-7" value="" style="shape=flexArrow;endArrow=classic;html=1;fontSize=12;entryX=0;entryY=0.5;entryDx=0;entryDy=0;width=36;endSize=14.617142857142856;" edge="1" source="9M24n2bTwKtzhzi8vtoN-6" target="9M24n2bTwKtzhzi8vtoN-5" parent="1">
                    <mxGeometry width="50" height="50" relative="1" as="geometry">
                        <mxPoint x="378" y="520" as="sourcePoint"/>
                        <mxPoint x="428" y="470" as="targetPoint"/>
                    </mxGeometry>
                </mxCell>
                <mxCell id="9M24n2bTwKtzhzi8vtoN-8" value="" style="rounded=0;whiteSpace=wrap;html=1;shadow=0;sketch=0;fontSize=12;fillColor=#dae8fc;strokeColor=#6c8ebf;" vertex="1" parent="1">
                    <mxGeometry x="640" y="160" width="80" height="240" as="geometry"/>
                </mxCell>
                <mxCell id="9M24n2bTwKtzhzi8vtoN-9" value="" style="ellipse;whiteSpace=wrap;html=1;aspect=fixed;shadow=0;sketch=0;fontSize=12;fillColor=#f8cecc;strokeColor=#b85450;" vertex="1" parent="1">
                    <mxGeometry x="560" y="240" width="80" height="80" as="geometry"/>
                </mxCell>
                <mxCell id="9M24n2bTwKtzhzi8vtoN-10" value="" style="shape=flexArrow;endArrow=classic;html=1;fontSize=12;entryX=0;entryY=0.5;entryDx=0;entryDy=0;width=36;endSize=14.617142857142856;" edge="1" source="9M24n2bTwKtzhzi8vtoN-9" target="9M24n2bTwKtzhzi8vtoN-8" parent="1">
                    <mxGeometry width="50" height="50" relative="1" as="geometry">
                        <mxPoint x="620" y="520" as="sourcePoint"/>
                        <mxPoint x="670" y="470" as="targetPoint"/>
                    </mxGeometry>
                </mxCell>
                <mxCell id="9M24n2bTwKtzhzi8vtoN-11" value="시작" style="text;strokeColor=none;fillColor=none;html=1;fontSize=24;fontStyle=1;verticalAlign=middle;align=center;shadow=0;sketch=0;" vertex="1" parent="1">
                    <mxGeometry x="119" y="110" width="100" height="40" as="geometry"/>
                </mxCell>
                <mxCell id="9M24n2bTwKtzhzi8vtoN-12" value="충돌" style="text;strokeColor=none;fillColor=none;html=1;fontSize=24;fontStyle=1;verticalAlign=middle;align=center;shadow=0;sketch=0;" vertex="1" parent="1">
                    <mxGeometry x="348" y="110" width="100" height="40" as="geometry"/>
                </mxCell>
                <mxCell id="9M24n2bTwKtzhzi8vtoN-13" value="위치 보정" style="text;strokeColor=none;fillColor=none;html=1;fontSize=24;fontStyle=1;verticalAlign=middle;align=center;shadow=0;sketch=0;" vertex="1" parent="1">
                    <mxGeometry x="580" y="110" width="100" height="40" as="geometry"/>
                </mxCell>
            </root>
        </mxGraphModel>
    </diagram>
    <diagram id="pGBr0JAKK03nQU8S1bMZ" name="Page-6">
        <mxGraphModel dx="1537" dy="728" grid="1" gridSize="10" guides="1" tooltips="1" connect="1" arrows="1" fold="1" page="1" pageScale="1" pageWidth="827" pageHeight="1169" math="0" shadow="0">
            <root>
                <mxCell id="0"/>
                <mxCell id="1" parent="0"/>
                <mxCell id="F1FQO0MoCbtmbw_TKj24-1" value="Shape" style="rounded=0;whiteSpace=wrap;html=1;" vertex="1" parent="1">
                    <mxGeometry x="200" y="120" width="80" height="40" as="geometry"/>
                </mxCell>
                <mxCell id="F1FQO0MoCbtmbw_TKj24-2" value="Rectangle" style="rounded=0;whiteSpace=wrap;html=1;" vertex="1" parent="1">
                    <mxGeometry x="80" y="200" width="80" height="40" as="geometry"/>
                </mxCell>
                <mxCell id="F1FQO0MoCbtmbw_TKj24-3" value="Circle" style="rounded=0;whiteSpace=wrap;html=1;" vertex="1" parent="1">
                    <mxGeometry x="320" y="200" width="80" height="40" as="geometry"/>
                </mxCell>
                <mxCell id="F1FQO0MoCbtmbw_TKj24-4" value="Ball" style="rounded=0;whiteSpace=wrap;html=1;" vertex="1" parent="1">
                    <mxGeometry x="320" y="280" width="80" height="40" as="geometry"/>
                </mxCell>
                <mxCell id="F1FQO0MoCbtmbw_TKj24-5" value="Paddle" style="rounded=0;whiteSpace=wrap;html=1;" vertex="1" parent="1">
                    <mxGeometry x="200" y="280" width="80" height="40" as="geometry"/>
                </mxCell>
                <mxCell id="F1FQO0MoCbtmbw_TKj24-6" value="Brick" style="rounded=0;whiteSpace=wrap;html=1;" vertex="1" parent="1">
                    <mxGeometry x="80" y="280" width="80" height="40" as="geometry"/>
                </mxCell>
                <mxCell id="F1FQO0MoCbtmbw_TKj24-7" value="Wall" style="rounded=0;whiteSpace=wrap;html=1;" vertex="1" parent="1">
                    <mxGeometry x="-40" y="280" width="80" height="40" as="geometry"/>
                </mxCell>
                <mxCell id="F1FQO0MoCbtmbw_TKj24-8" value="" style="endArrow=none;html=1;entryX=0.5;entryY=1;entryDx=0;entryDy=0;exitX=0.5;exitY=0;exitDx=0;exitDy=0;" edge="1" parent="1" source="F1FQO0MoCbtmbw_TKj24-2" target="F1FQO0MoCbtmbw_TKj24-1">
                    <mxGeometry width="50" height="50" relative="1" as="geometry">
                        <mxPoint x="220" y="400" as="sourcePoint"/>
                        <mxPoint x="270" y="350" as="targetPoint"/>
                        <Array as="points">
                            <mxPoint x="120" y="180"/>
                            <mxPoint x="240" y="180"/>
                        </Array>
                    </mxGeometry>
                </mxCell>
                <mxCell id="F1FQO0MoCbtmbw_TKj24-9" value="" style="endArrow=none;html=1;entryX=0.5;entryY=1;entryDx=0;entryDy=0;exitX=0.5;exitY=0;exitDx=0;exitDy=0;" edge="1" parent="1" source="F1FQO0MoCbtmbw_TKj24-7" target="F1FQO0MoCbtmbw_TKj24-2">
                    <mxGeometry width="50" height="50" relative="1" as="geometry">
                        <mxPoint x="350" y="160" as="sourcePoint"/>
                        <mxPoint x="400" y="110" as="targetPoint"/>
                        <Array as="points">
                            <mxPoint y="260"/>
                            <mxPoint x="120" y="260"/>
                        </Array>
                    </mxGeometry>
                </mxCell>
                <mxCell id="F1FQO0MoCbtmbw_TKj24-10" value="" style="endArrow=none;html=1;entryX=0.5;entryY=1;entryDx=0;entryDy=0;exitX=0.5;exitY=0;exitDx=0;exitDy=0;" edge="1" parent="1" source="F1FQO0MoCbtmbw_TKj24-3" target="F1FQO0MoCbtmbw_TKj24-1">
                    <mxGeometry width="50" height="50" relative="1" as="geometry">
                        <mxPoint x="360" y="170" as="sourcePoint"/>
                        <mxPoint x="410" y="120" as="targetPoint"/>
                        <Array as="points">
                            <mxPoint x="360" y="180"/>
                            <mxPoint x="240" y="180"/>
                        </Array>
                    </mxGeometry>
                </mxCell>
                <mxCell id="F1FQO0MoCbtmbw_TKj24-11" value="" style="endArrow=none;html=1;entryX=0.5;entryY=1;entryDx=0;entryDy=0;exitX=0.5;exitY=0;exitDx=0;exitDy=0;" edge="1" parent="1" source="F1FQO0MoCbtmbw_TKj24-6" target="F1FQO0MoCbtmbw_TKj24-2">
                    <mxGeometry width="50" height="50" relative="1" as="geometry">
                        <mxPoint x="370" y="180" as="sourcePoint"/>
                        <mxPoint x="420" y="130" as="targetPoint"/>
                    </mxGeometry>
                </mxCell>
                <mxCell id="F1FQO0MoCbtmbw_TKj24-12" value="" style="endArrow=none;html=1;exitX=0.5;exitY=0;exitDx=0;exitDy=0;entryX=0.5;entryY=1;entryDx=0;entryDy=0;" edge="1" parent="1" source="F1FQO0MoCbtmbw_TKj24-5" target="F1FQO0MoCbtmbw_TKj24-2">
                    <mxGeometry width="50" height="50" relative="1" as="geometry">
                        <mxPoint x="380" y="190" as="sourcePoint"/>
                        <mxPoint x="430" y="140" as="targetPoint"/>
                        <Array as="points">
                            <mxPoint x="240" y="260"/>
                            <mxPoint x="120" y="260"/>
                        </Array>
                    </mxGeometry>
                </mxCell>
                <mxCell id="F1FQO0MoCbtmbw_TKj24-13" value="" style="endArrow=none;html=1;entryX=0.5;entryY=1;entryDx=0;entryDy=0;" edge="1" parent="1" source="F1FQO0MoCbtmbw_TKj24-4" target="F1FQO0MoCbtmbw_TKj24-3">
                    <mxGeometry width="50" height="50" relative="1" as="geometry">
                        <mxPoint x="390" y="200" as="sourcePoint"/>
                        <mxPoint x="440" y="150" as="targetPoint"/>
                    </mxGeometry>
                </mxCell>
            </root>
        </mxGraphModel>
    </diagram>
</mxfile>